<svg id="Layer_1" data-name="Layer 1" xmlns="http://www.w3.org/2000/svg" viewBox="0 0 772.59 346.44"><defs><style>.cls-1{fill:#f69926;}.cls-2{fill:#7b287a;}.cls-3{fill:#ed4b46;}.cls-4{fill:#fff;}.cls-5{fill:#ee4e48;}.cls-6{fill:#ed4c46;}.cls-7{fill:#f79a25;}.cls-8{fill:#ee4d47;}.cls-9{fill:#7d2d7c;}.cls-10{fill:#f79b28;}.cls-11{fill:#7c2a7b;}.cls-12{fill:#7c2b7b;}</style></defs><title>logo</title><path class="cls-1" d="M361.5,357.94c-1.75.44-2.82-.72-3.94-1.71l-16.7-14.7c-.38-.33-.69-.9-1.11-1-5.66-1.16-4.46-5.6-4.51-9.39-.35-23.12-.75-46.25-.91-69.38,0-3.43-1.07-4.06-4.27-4q-134.84.67-269.65,1.14c-16.34.07-32.68.2-49,.27-1.49,0-3,.34-4.42-.56v-46c.13,0,.29,0,.37,0,8.68-6.43,18.56-7.2,29-6.78,11.41.47,22.87,0,34.3.19,3,0,3.9-1,3.81-3.91-.23-7.29-.09-14.58-.26-21.86a6.09,6.09,0,0,1,2.27-5.24q14.31-12.27,28.51-24.65c2-1.78,4.33-1.73,6.72-1.73q59.94,0,119.88-.08,81.81,0,163.62.11c3.44,0,4.55-.79,4.37-4.41-1.15-22.59-1.35-45.21-1.21-67.83,0-1.38.15-2.75.23-4.12.91-.28,1.42.36,1.88.92,4,4.83,8.16,9.53,11.64,14.77.71,5.61.3,11.24.29,16.86,0,3,.7,5.36,3,7.33,3.7,3.2,6.52,7.24,9.94,10.72a8.75,8.75,0,0,0,6.67,2.75c3.61,0,7.25-.53,10.82.46,2.38,1.82,3.77,4.48,5.69,6.68.81.93,1.53,2.13-.32,2.9-6.87.89-13.78.2-20.66.41-1.5.05-3,0-4.51.08a2.64,2.64,0,0,0-2.79,2.86c-.17,4.51-.08,9-.05,13.53,0,2.59,1.67,3.06,3.76,3.07,7,0,14.05-.06,21.07,0s14-.36,21,.27a5.32,5.32,0,0,1,2.88,2.27c5.07,6.2,10,12.53,15.09,18.69a5.88,5.88,0,0,1,1.83,3.62c-.25,12.29,0,24.59-.12,36.88a15.29,15.29,0,0,0,1.32,6.19c.35,1.27-.36,2.16-1.14,3-2.31,2.45-4.69,4.83-6.87,7.41-.79.94-2,2.77-3.45.37a18.64,18.64,0,0,1-.42-5.62c0-14.21-.1-28.42,0-42.63A12.7,12.7,0,0,0,471,176c-12.14-11.68-7.22-9.62-23.86-9.84-4.52,0-9.05.11-13.57,0a9.42,9.42,0,0,0-8,3.33c-.81.95-1.79,1.76-2.68,2.64-2.09,2.05-4.48,2.35-6.19,0-4.3-5.95-10.3-6.17-16.79-6-10.43.27-20.87,0-31.31.09-4.59,0-5,.44-5,4.91q0,30.18,0,60.35c0,4.35.46,4.78,4.74,4.84,4.65.07,9.3.08,13.95,0,4-.07,4.6-.58,4.62-4.62.09-11.82.3-23.65-.06-35.46-.24-7.6,5.25-11.76,11.88-11.17,5.44.48,8.52,3.43,8.57,9,.12,12.07,0,24.14.05,36.21,0,6,.12,6.1,6.12,6.11,4.4,0,8.81,0,13.21,0,4.24-.05,4.73-.52,4.75-4.84.07-11.94,0-23.89,0-35.83,0-7.37,2.93-10.54,9.63-10.59s10.65,3.68,10.72,10.77c.11,11.44,0,22.88,0,34.32,0,6.18,0,6.12,6.35,6.21,4.9.07,9.8-.36,14.68.29,2.52,1,1.12,2.36.17,3.42-1.83,2.06-3.54,4.26-5.48,6.19-5.71,5.65-10.83,11.85-16.55,17.48a7.87,7.87,0,0,1-3.68,2.52c-5.35.58-10.72.16-16.08.27-4.7.11-5,.4-5.08,5.2-.13,5.86.33,11.72-.27,17.57-1.58,4.13-4.9,6.82-8,9.65a1.5,1.5,0,0,1-2,.28c-1.79-4-1.22-8.2-.59-12.21a12,12,0,0,0-3.91-11.52q-4-3.73-7.73-7.73a10.65,10.65,0,0,0-8.36-3.56c-12.82.09-25.64,0-38.46.05-4.76,0-5.23.5-5.32,5.13-.05,2.77-.08,5.53,0,8.3.13,3.83.86,4.61,4.77,4.67,9,.11,18.1,0,27.15,0a24.26,24.26,0,0,1,4.51.2c3,.56,5.05,2.91,4.7,5.42-.4,3-2.71,3.32-5.06,3.34-10.06.11-20.11,0-30.17.05-5.71,0-5.92.23-5.93,5.95,0,6.91.05,13.83,0,20.74,0,3.1,1.2,5.41,3.15,7.77,5.81,7,12.31,12.13,22.19,10.15a5,5,0,0,1,3.28.61c1.44,1.29.11,2.22-.49,3.18a32.41,32.41,0,0,1-5.21,5.83,119.65,119.65,0,0,0-8.85,9.58A7.45,7.45,0,0,1,361.5,357.94Z" transform="translate(-6.97 -12.52)"/><path class="cls-2" d="M752.33,12.57l20.89.09,6.13,7c0,8.29.14,16.59.14,24.88,0,30.93,0,61.86.08,92.79a6.32,6.32,0,0,1-1,3.58c-4.26,7-21.76,4.85-25.57,9a3.74,3.74,0,0,0-1.17,2.7,3.66,3.66,0,0,0,1.44,2.14c7.94,7.16,15.73,14.47,23.67,21.62a7.11,7.11,0,0,1,2.6,5.86c-.1,15.59-.07,31.18,0,46.77a7.85,7.85,0,0,1-1.8,5.55c-5.37,6.16-10.71,12.35-15.94,18.62a7.52,7.52,0,0,1-6.53,3c-4-.14-8,0-12.06,0-.84,0-2-.35-2.45.5-.66,1.15.57,1.79,1.16,2.49,8.39,10,16.75,20.07,25.27,30a10.66,10.66,0,0,1,2.71,7.51c-.07,19.36-.09,38.72.07,58.08,0,3.33-.89,4.24-4.23,4.22q-35.82-.22-71.66,0c-4.37,0-8.18-.49-11.24-3.88a16.17,16.17,0,0,0-3.22-2.6c-1-.63-1.72-2.34-3.11-1.52-1,.6-.6,2.12-.46,3.16.52,3.89-1.08,4.93-4.88,4.8-8.67-.3-17.35,0-26-.14-7.21-.07-5.86,1.27-8.42-5.79-1-2.68-2.47-3.32-5.07-3.26s-3.28,1.67-3.68,3.54c-.94,4.42-3.36,6.05-8,5.6s-9.55,0-14.32-.12-10,1.8-12.69-5.05c.32,5.51-2.92,5.12-6.19,5.07-12.82-.19-25.64-.34-38.46-.31-3.07,0-4.15-1-4.2-4.09-.1-6.68-.26-6.68-7.15-7.06s-7.19-.37-6.94,6.68c.12,3.44-.85,4.55-4.39,4.52q-50.92-.3-101.84-.27c-2.52,0-4-.88-5-3.07s-2.2-2.07-3,0c-1,2.64-2.83,3-5.34,3-16.34-.15-32.68-.19-49-.26l18.92-20.37c1.25-1.89,3.25-1.66,5.08-1.68,6.76-.09,13.51,0,20.27-.05,9.94-.07,8.86,1.11,8.92-8.74.05-7.5,0-15,0-22.52,0-2-.16-4.07,1.76-5.46l8.49-8.83c1.42,1.58,1.08,3.55,1.09,5.39,0,11.82,0,23.63,0,35.44,0,6,.32,6.25,6.1,6.27,5.15,0,10.3,0,15.45,0,4.3-.05,4.76-.47,4.78-4.79.07-11.94,0-23.87,0-35.81,0-8,2.66-10.64,10.62-10.69,5.27,0,10.55.07,15.83,0,4.39-.08,5.09-.78,5.21-5,.09-3.39-.07-6.79,0-10.18.1-3-1-4.41-4.12-4.37-6.41.08-12.82,0-19.23,0a8.6,8.6,0,0,0-5.49,2.09c-4.08,3.18-6.46,2.1-7.17-3.13l25.9-27.86a4,4,0,0,1,2.41-2.43l10.13-10.66c1.81-.51,2.8.83,3.85,1.82a64.16,64.16,0,0,1,7,7.36,8.35,8.35,0,0,0,7.18,3.38c14.32,0,28.63,0,43,0,3.9,0,4.38-.56,4.48-4.33.07-3-.11-6,.05-9,.17-3.29-1.55-4-4.41-4-9.67.06-19.34,0-29,0-3.2,0-6-.67-8-3.36s-1.21-4.85,2-5.48a24.94,24.94,0,0,1,4.89-.2c9.92,0,19.84,0,29.76,0,4.37,0,4.65-.33,4.67-4.78,0-6.78-.1-13.57,0-20.35a10.15,10.15,0,0,0-3.37-8c-3-2.89-6.19-5.53-8.52-9-.81-1.89.38-3.1,1.53-4.27,9.1-9.32,17.59-19.22,26.86-28.37,2.91-2.88,4.73-6.87,8.76-8.61a33.41,33.41,0,0,1,6.7-.32c1.87,0,2.69-.91,2.74-2.75.07-2.48-.21-5,.3-7.45,2.7-4.25,6.4-7.65,9.72-11.37,2.17-2.43,4.59-4.62,6.86-7,.89-.92,1.72-2.43,3.39-1,1,1.61.79,3.4.8,5.15,0,6.78.08,13.57,0,20.36,0,2.91,1.14,4.07,4,4,5-.07,10.05,0,15.08,0,4.51,0,5-.51,5-5,.06-12.32,0-24.64,0-36.95,0-2.27,0-4.53,1.47-6.49,2.48-3.31,8.12-4.73,12.77-3.16,4,1.36,6.09,4.24,6.12,8.89.08,12.32,0,24.64,0,37,0,5.41.34,5.72,5.8,5.74,4.91,0,9.81,0,14.71,0,2.55,0,3.6-1.11,3.6-3.64,0-16.72,0-33.43,0-50.15a7.66,7.66,0,0,0-2.58-5.65,92.75,92.75,0,0,1-7.66-8.32,10,10,0,0,0-8.54-3.93A47.73,47.73,0,0,1,648,55c-1.44-.43-1.77-1.37-.87-2.51,3.94-5,7.93-9.92,13.24-13.56,5.89-1.92,9.33,1.6,12.68,5.57.89,1.06,1.77,3.17,3.26,2.55s.54-2.7.59-4.12c.15-4.89.37-9.8.13-14.68-.33-6.93,3.61-11.41,8.24-15.61Q718.64,12.47,752.33,12.57Z" transform="translate(-6.97 -12.52)"/><path class="cls-3" d="M576.45,128.39q-18,19.32-36,38.66c-11.2-3.33-22.68-1-34-1.78a11,11,0,0,0-10.59,5c-2,2.88-4.73,5.17-7.25,7.6-.95.91-1.86,2.15-3.52,1.58-6.16-7.29-12.25-14.63-17.9-22.32,1.87-3.69,5.29-6,8.06-8.83,9.48-9.8,8.14-6.38,8.18-20,.07-22.37,0-44.74,0-67.12,0-5.83-.14-6-5.85-6-14.7,0-29.41.05-44.11,0a10,10,0,0,0-8,3.33c-3.08,3.31-6.3,6.5-9.59,9.61a11.08,11.08,0,0,0-3.48,8.39c-.08,3.68,1.09,7.53-1,11q-6.42-7.68-12.83-15.35c-.6-2.13.52-3.59,1.85-5,7.73-8.27,15.49-16.5,23.13-24.85a9.77,9.77,0,0,1,7.22-3.39c16.09-.77,32.18-.09,48.27-.38,3.21-.06,3.19,2.67,4.38,4.39,1,1.4.95,4,2.76,4.12s2.4-2.41,3-3.9c1.6-3.83,4.19-4.78,8.23-4.68,12.69.28,25.39.16,38.09,0a7.46,7.46,0,0,1,6,2.39c2.52,2.63,5.33,5,8,7.49,1.51,1.43,2.55,1.54,3-.79a11,11,0,0,1,.34-1.07c2.29-8,2.29-8,10.47-8,13.46,0,26.91.21,40.36-.11,5.11-.12,9.38.86,12.82,4.66,2.43,2.69,4.7,3,7-.11,2.93-3.85,6.87-4.78,11.6-4.52,8.39.46,16.82-.28,25.22.37L646.38,54c-1,1.28-2.41,1.19-3.77,1.26a40.32,40.32,0,0,1-6,0,13,13,0,0,0-12,4.76c-3.74,4.21-5.53,4.23-9.23.09-3.42-3.82-7.3-5-12.31-4.91-11.28.29-22.58.09-33.87.1-6.56,0-6.58,0-6.58,6.38q0,29.37,0,58.73c0,6.51,0,6.42,6.43,6.59C571.56,127,574.38,126,576.45,128.39Z" transform="translate(-6.97 -12.52)"/><path class="cls-4" d="M476.46,235.19a2.84,2.84,0,0,1-2.41,2.43c-6.65-.09-13.3-.33-19.95-.21-3,.06-3.89-.84-3.86-3.82.14-12.57-.29-25.15.19-37.7.24-6.48-3.67-10.32-9.81-9.49-2.1.28-4.16,0-5.92,1.73a7.52,7.52,0,0,0-2.53,5.93c.11,13.07,0,26.14.08,39.21,0,3-.64,4.27-3.93,4.14-6.15-.24-12.31-.18-18.47,0-2.83.08-3.67-.94-3.65-3.71.11-13.2.06-26.39.05-39.59,0-4.9-2.69-7.59-7.58-7.64h-3c-4.58.07-7.44,2.9-7.45,7.46,0,13.2-.08,26.4.05,39.59,0,3-.88,4-3.87,3.9-6.15-.19-12.32-.15-18.47,0-2.54.05-3.55-.65-3.54-3.38q.12-32.62,0-65.23c0-2.93.82-3.9,3.87-3.86,12.44.16,24.89.32,37.32-.08,5.37-.17,9.57,1,12.67,5.42,2.17,3.11,4.36,3.41,6.64.09,3.17-4.62,7.54-5.83,13-5.48,7.26.47,14.58.19,21.86,0a7.56,7.56,0,0,1,6.31,2.67,27.29,27.29,0,0,0,4.51,4.54c6.64,4.72,8.13,11.09,7.86,19C475.91,205.78,476.39,220.49,476.46,235.19Z" transform="translate(-6.97 -12.52)"/><path class="cls-4" d="M240.56,201c0-10.44.19-20.88-.1-31.31-.12-4,1.23-4.82,4.92-4.75,12.32.21,24.65.3,37,0,5-.14,8.54,1.18,11.8,4.95,3.87,4.47,3.41,4.37,7.23,0,3.28-3.75,6.87-5.15,11.82-4.9,7.65.39,15.33.14,23,0a7,7,0,0,1,5.68,2.36,28.49,28.49,0,0,0,4.51,4.54c6.92,4.87,8.39,11.49,8,19.62-.59,13.93-.24,27.9-.12,41.85,0,3.07-.86,4.23-4.06,4.11-5.9-.23-11.82-.21-17.72,0-3.06.1-4.15-.77-4.12-4,.15-12.83,0-25.65,0-38.48,0-6.06-2.44-8.51-8.64-8.48-2.47,0-5-.37-7,1.78a7.79,7.79,0,0,0-2.56,5.93c.11,13.08-.05,26.16.12,39.23,0,3.19-1,4.12-4.07,4-5.9-.22-11.82-.21-17.72,0-3.1.11-4.16-.88-4.12-4,.15-12.19-.29-24.4.17-36.58.31-7.91-3.22-11.13-10.75-10.38-1.81.18-3.37.38-4.83,1.63a7,7,0,0,0-2.6,5.88c.12,13.2,0,26.41.13,39.6,0,3-.83,4-3.86,3.9-6.16-.21-12.33-.19-18.48,0-2.78.08-3.73-.78-3.69-3.63C240.64,222.82,240.56,211.88,240.56,201Z" transform="translate(-6.97 -12.52)"/><path class="cls-4" d="M411.36,87.55c.07-4.4.26-8.79.18-13.18a7.16,7.16,0,0,1,2.24-5.71c4-4,8-8,11.89-12.11a7.17,7.17,0,0,1,5.67-2.36q24.71.09,49.41,0c2.79,0,3.71.91,3.7,3.7-.08,26.53-.05,53.07-.05,79.6,0,1.26.1,2.6-.87,3.56-5.42,5.39-10.29,11.34-16.36,16.08-14.71,0-29.42-.17-44.13,0-3.29,0-4.46-.86-4.26-4.23.27-4.64.2-9.31,0-14-.12-2.91.78-4,3.83-3.95,8.79.11,17.58-.08,26.38-.15,1.35-1.32,3.39-.7,4.85-1.71s3.08-2.2,2.6-4.14-2.43-1.27-3.85-1.38c-3.2-.25-6.46.48-9.62-.57-4-.68-8-.26-12-.26a6.73,6.73,0,0,1-5.29-2.27c-4-4.2-8-8.35-12.1-12.38a6.82,6.82,0,0,1-2.07-5.37C411.55,100.33,411.43,93.94,411.36,87.55Z" transform="translate(-6.97 -12.52)"/><path class="cls-4" d="M232.51,201.31c0,5.79-.07,11.57,0,17.35a8.09,8.09,0,0,1-2.52,6.41c-3.79,3.68-7.49,7.45-11.13,11.27a7.6,7.6,0,0,1-6,2.58q-16.59-.13-33.19,0a7.38,7.38,0,0,1-6-2.56c-4.3-4.74-10.4-8.38-12.89-14.07s-.59-12.39-.7-18.66c-.12-6.79,0-13.58-.06-20.37a7.27,7.27,0,0,1,2.24-5.72c4.05-4,8-8,11.92-12.09a6,6,0,0,1,4.67-1.95q17.35.09,34.7,0a6,6,0,0,1,4.69,1.89q6,6.25,12.18,12.36a7,7,0,0,1,2,5.45c-.06,6,0,12.07,0,18.1Z" transform="translate(-6.97 -12.52)"/><path class="cls-4" d="M485.07,179.44c4-4,8.09-7.83,11.94-11.95a9.68,9.68,0,0,1,7.89-3.38q13.51.27,27.05,0c3.32-.07,6.15.52,8.48,3,3.53,3.73,7,7.51,10.62,11.16a7,7,0,0,1,2.31,5.3c-.09,8.29-.16,16.58,0,24.87,0,2.92-1.1,3.59-3.77,3.56q-17.15-.15-34.28,0c-1.75,0-4.92-1.33-5,1.48-.05,2.54,2.51,4.44,5.27,5.06a13.73,13.73,0,0,0,3,.06c10.3,0,20.6.11,30.89-.07,3,0,4,.92,3.85,3.88-.21,4.26-.11,8.54,0,12.8,0,2.05-.66,2.94-2.83,2.93q-23.93-.09-47.85,0c-2.14,0-3.48-1.09-4.84-2.46-3.71-3.73-7.47-7.42-11.2-11.13-1.93-2-2.41-4.42-2.38-7.2.13-10.92.06-21.83,0-32.75A10.52,10.52,0,0,1,485.07,179.44Z" transform="translate(-6.97 -12.52)"/><path class="cls-4" d="M416.49,299.12c-.7,11.16-.28,22.33-.22,33.5,0,3.63-1,4.76-4.63,4.66-8.91-.24-17.83-.1-26.74-.06-1.5,0-3,.23-4.48.35-4.23-.85-8.5-.25-12.74-.33-2.29,0-4.21-.52-5.68-2.34a2.42,2.42,0,0,0-.53-.53c-9.07-6.5-12.75-15.1-11-26.28.68-4.42.35-9,0-13.55-.27-3.81,1.29-4.61,4.77-4.55,10.81.19,21.62.09,32.42.05,1.75,0,4.14.66,3.95-2.47-.16-2.58-1.42-4.29-4.19-4.33-4.28-.07-8.55,0-12.82,0-6.91,0-13.83-.06-20.74,0-2.42,0-3.41-.84-3.35-3.29q.17-6.78,0-13.57c-.06-2.47,1-3.29,3.37-3.28,14.58.07,29.15,0,43.73,0a6.54,6.54,0,0,1,5,2.23c3.49,3.61,6.93,7.29,10.61,10.71a9.54,9.54,0,0,1,3.17,8C416.17,289.11,415.78,294.12,416.49,299.12Z" transform="translate(-6.97 -12.52)"/><path class="cls-4" d="M128.31,237.37c-6.41,0-12.82-.06-19.22,0a6,6,0,0,1-5.29-2.24c-.08-.1-.18-.17-.27-.27-4.41-4.63-10.16-8.6-12.85-14.08s-.63-12.34-.76-18.6c-.12-5.77.08-11.55-.07-17.33a7.45,7.45,0,0,1,2.66-6.3,20.14,20.14,0,0,0,3.69-3.75c5.83-8.62,13.88-10.94,24-10.05,9.35.82,18.82.26,28.24.13,2.81,0,3.76.87,3.64,3.68-.19,4.76-.2,9.55,0,14.31.12,2.93-1.06,3.63-3.76,3.59-8.41-.13-16.82-.07-25.24,0a6.83,6.83,0,0,0-7.24,7.19c0,4.9,0,9.79,0,14.69s2.82,7.49,7.79,7.47c8.16,0,16.32.06,24.49-.09,2.84-.05,4.12.71,4,3.81-.22,4.64-.21,9.3,0,13.94.13,2.92-.75,4-3.8,3.93-6.65-.19-13.31-.06-20-.06Z" transform="translate(-6.97 -12.52)"/><path class="cls-4" d="M448.15,265.48a19.8,19.8,0,0,1,1.15,1.94c1.32,3,2.91,3.06,4.81.52,1.65-2.19,3.83-2.9,6.57-2.84,7,.15,14.07.13,21.1,0,2.63,0,3.53.93,3.46,3.53-.15,5-.11,10,0,15.06.05,2.45-.93,3.35-3.34,3.32-6.9-.07-13.81,0-20.72,0-4.74,0-7.57,3-7.57,7.74,0,13.31-.06,26.62.07,39.93,0,3-.9,3.94-3.89,3.85-6.78-.2-13.57-.23-20.34,0-3.29.11-4.35-.86-4.31-4.22.17-13.31.08-26.62.06-39.92,0-1.38-.14-2.75-.22-4.13.07-7.12.25-14.24.14-21.36-.05-3,1-4,3.92-3.81C435.4,265.43,441.79,264.8,448.15,265.48Z" transform="translate(-6.97 -12.52)"/><path class="cls-4" d="M50,221.4c8.41,0,16.83.17,25.24-.08,3.6-.11,4.56,1.13,4.37,4.53-.26,4.63-.16,9.29,0,13.94.07,2.53-.72,3.64-3.41,3.63q-26.55-.1-53.11,0c-2.72,0-3.43-1.13-3.37-3.62.12-5,.15-10.05,0-15.07-.09-2.73,1.07-3.4,3.58-3.37C32.16,221.46,41.08,221.4,50,221.4Z" transform="translate(-6.97 -12.52)"/><path class="cls-5" d="M443,127c4-.69,8-.17,12-.29,1.1,0,2.43-.21,2.8,1.24a3.76,3.76,0,0,1-.68,3.54c-2.12,2.54-4.48,4.4-8.07,3.31Z" transform="translate(-6.97 -12.52)"/><path class="cls-4" d="M576.45,128.39c-3.89-.09-7.78-.3-11.66-.22-2.47.05-3.25-.86-3.25-3.31q.12-33.56,0-67.12c0-2.54.68-3.58,3.39-3.56,14.58.1,29.16.12,43.74,0,3.55,0,5,2.62,7,4.55,4.46,4.33,4.61,4.57,8.65-.07a12,12,0,0,1,10.83-4.5A108.81,108.81,0,0,0,646.38,54c4.38.09,8.77.26,13.15.24a6.82,6.82,0,0,1,5.38,2.12c3.64,3.83,7.35,7.57,11.1,11.28a6.07,6.07,0,0,1,1.86,4.7c0,17.45-.08,34.91,0,52.37,0,2.57-.68,3.57-3.39,3.5q-9.78-.22-19.59,0c-2.82.07-3.68-.94-3.66-3.71.11-13.56.06-27.12,0-40.69,0-4.64-2.73-7.4-7.34-7.46-1.38,0-2.76,0-4.14,0A6.74,6.74,0,0,0,633,83.15c0,12.81,0,25.62,0,38.43,0,7.79.36,6.45-6.35,6.53-5.53.06-11.06-.13-16.58.07-2.89.1-3.66-1-3.61-3.72.14-7.91.06-15.83,0-23.74,0-1.23-.21-2.47-.33-3.7-1.09-3.81-.29-7.7-.44-11.55-.22-5.6-2.89-8.37-8.34-8.36s-8.3,2.77-8.35,8.35c-.07,8.26,0,16.53,0,24.8a17.12,17.12,0,0,1-.69,5.56c-.11,3.09-.32,6.19-.28,9.28,0,2.21-.75,3.14-3,3.07C582.15,128.08,579.3,128.3,576.45,128.39Z" transform="translate(-6.97 -12.52)"/><path class="cls-4" d="M686.85,77.23c0-15.59.08-31.18-.07-46.77,0-3.17.66-4.43,4.13-4.41q33.95.21,67.89,0c3.17,0,4.13,1.07,4,4.15-.21,5.78-.2,11.57,0,17.35.11,3-1,3.85-3.94,3.82-13.83-.12-27.66.08-41.48-.13-3.62-.06-4.72,1.14-4.31,4.52a20.66,20.66,0,0,1,0,5.27c-.52,3.8,1.19,4.62,4.69,4.54,9.3-.22,18.61,0,27.91-.12,3,0,4.34.7,4.19,4-.25,5.4-.19,10.81,0,16.21.09,2.83-1,3.73-3.72,3.69-9.8-.12-19.61,0-29.42-.09-2.8,0-3.88.87-3.63,3.69a36.56,36.56,0,0,1,0,6.78c-.32,3,1,3.9,3.85,3.88,14.08-.09,28.16.12,42.23-.12,3.88-.06,5,1.06,4.8,4.88-.33,5.38-.22,10.81,0,16.21.1,3-.75,4.17-4,4.15q-34.7-.18-69.4,0c-3.15,0-3.75-1.21-3.74-4C686.9,108.91,686.85,93.07,686.85,77.23Z" transform="translate(-6.97 -12.52)"/><path class="cls-4" d="M598.32,304.57c0-10.93.11-21.86-.07-32.79,0-3.08,1.07-3.87,3.91-3.86q26,.12,52,0a6.94,6.94,0,0,1,5.31,2.31c4.19,4.33,9.81,7.91,12.33,13s.68,11.84.72,17.86c.1,12.18,0,24.37.09,36.56,0,2.95-.83,4-3.86,3.86-6.52-.21-13.07-.18-19.59,0-2.86.07-3.67-1-3.64-3.72.11-13.32,0-26.64.08-40,0-5.05-2.56-7.95-7.7-8-3.52,0-7.27-1.11-10.36,2a7.14,7.14,0,0,0-2.27,5.64c.11,13.31,0,26.63.15,39.95,0,3.1-.88,4.2-4,4.1-6.41-.21-12.82-.19-19.22,0-2.93.09-4-.75-3.92-3.81C598.42,326.69,598.32,315.63,598.32,304.57Z" transform="translate(-6.97 -12.52)"/><path class="cls-4" d="M736.48,238.09c-7.67,0-15.34-.06-23,0a6.67,6.67,0,0,1-5.33-2.18q-6-6.28-12.15-12.37a6.06,6.06,0,0,1-1.9-4.69q.09-17.73,0-35.44a6,6,0,0,1,1.85-4.71q6.18-6.06,12.2-12.32a6.89,6.89,0,0,1,5.33-2.27q15.27.09,30.54,0a6.89,6.89,0,0,1,5.38,2.18c3.92,4.07,7.9,8.09,11.89,12.1a7.17,7.17,0,0,1,2.16,5.42c-.06,8.16-.15,16.33,0,24.5,0,2.91-1.12,3.63-3.8,3.6q-17.14-.15-34.3,0c-1.75,0-4.89-1.36-5,1.42-.13,2.63,2.5,4.42,5.22,5.12a10.46,10.46,0,0,0,2.63.06c10.18,0,20.36.19,30.53-.09,4-.11,5.09,1.22,4.76,4.95a55.19,55.19,0,0,0,0,9.79c.32,3.71-.78,5.12-4.75,5C751.32,237.87,743.89,238.09,736.48,238.09Z" transform="translate(-6.97 -12.52)"/><path class="cls-4" d="M748,313.84c0,8.54-.08,17.08,0,25.62,0,2.79-.9,3.69-3.7,3.67-15.19-.11-30.39-.08-45.59,0a5.38,5.38,0,0,1-4.62-2,2.71,2.71,0,0,0-.54-.53c-9.39-6.71-13.28-15.59-11.44-27.18.7-4.41.27-9,.06-13.55-.15-3.09.87-4.16,4-4.12,11,.13,22.11,0,33.16-.05,1.57,0,3.89.85,4-2a4.28,4.28,0,0,0-3.58-4.64,16.71,16.71,0,0,0-3.75-.15c-10,0-20.1-.09-30.15,0-2.73,0-3.86-.72-3.72-3.61.21-4.26.14-8.54,0-12.8-.06-2.3.54-3.46,3.13-3.44,14.83.08,29.65.05,44.47,0a5.58,5.58,0,0,1,4.28,1.95c3.93,4.05,7.87,8.11,11.9,12.07,1.69,1.67,2,3.61,2,5.83,0,8.29,0,16.58,0,24.87Z" transform="translate(-6.97 -12.52)"/><path class="cls-4" d="M493,304.27c0-11.93.08-23.87-.07-35.8,0-3,.85-3.89,3.84-3.86,13.56.14,27.13.07,40.7.07.5,0,1,0,1.5,0,4.16.35,15.53,12.62,15.54,16.76,0,7.91-.07,15.83,0,23.74,0,2.46-.94,4.12-2.44,6-6.88,8.64-15.4,11.92-26.56,10.85-10.22-1-10.3-.21-10.3,10.23,0,3-.06,6,0,9,0,1.9-.77,2.74-2.7,2.72-5.4,0-10.8-.13-16.2,0-2.73.07-3.39-1.1-3.37-3.6C493.09,328.39,493,316.33,493,304.27Z" transform="translate(-6.97 -12.52)"/><path class="cls-4" d="M663.14,165c6.41,0,12.82.16,19.22-.06,3.09-.11,3.89,1,3.75,3.92a118,118,0,0,0,0,13.56c.24,3.48-1.12,4.21-4.31,4.13-8.16-.2-16.33-.08-24.49-.06-4.53,0-7.52,2.94-7.55,7.39,0,4.77,0,9.54,0,14.31s2.64,7.53,7.33,7.58c8.29.1,16.59.21,24.87,0,3.42-.1,4.35,1.07,4.16,4.32-.26,4.51-.2,9,0,13.56.11,2.68-.55,3.8-3.5,3.77-13.07-.12-26.13-.06-39.19,0a7.23,7.23,0,0,1-5.68-2.33q-5.72-6-11.62-11.83a6.93,6.93,0,0,1-2.15-5.38q.09-16.76,0-33.53a7,7,0,0,1,2.25-5.34q5.89-5.84,11.62-11.83a6.77,6.77,0,0,1,5.34-2.22C649.83,165,656.48,165,663.14,165Z" transform="translate(-6.97 -12.52)"/><path class="cls-4" d="M561.47,201.08c0-10.81.08-21.63,0-32.44,0-2.74.76-3.84,3.62-3.72,4.4.19,8.81.15,13.2,0,2.48-.07,4.43.34,5.48,2.9.87,2.15,2.22,2.26,3.5.36,1.93-2.87,4.64-3.37,7.87-3.27,5.78.18,11.57.16,17.35,0,2.66-.07,3.53.9,3.45,3.51-.16,4.9-.19,9.81,0,14.71.11,2.8-1.08,3.39-3.57,3.34-5.9-.13-11.81-.08-17.72,0-4.6,0-7.41,2.94-7.42,7.55,0,13.08-.07,26.16.07,39.23,0,3-.63,4.29-3.93,4.16-6.15-.25-12.32-.18-18.48,0-2.66.07-3.47-.86-3.44-3.47C561.54,223,561.47,212,561.47,201.08Z" transform="translate(-6.97 -12.52)"/><path class="cls-4" d="M562,304.82c0-11.05.08-22.09-.05-33.13,0-2.78.85-3.78,3.66-3.72,7.15.15,14.31.12,21.46,0,2.39,0,3.3.74,3.29,3.25q-.11,33.31,0,66.64c0,2.76-.79,3.75-3.64,3.68-7-.18-14.06-.21-21.08,0-3.16.1-3.76-1.18-3.73-4C562,326.66,562,315.74,562,304.82Z" transform="translate(-6.97 -12.52)"/><path class="cls-4" d="M576.07,265.43c-3.63,0-7.27-.11-10.9,0-2.5.1-3.3-.92-3.25-3.32.12-5.39.09-10.78,0-16.16,0-2.21.74-3.19,3.05-3.16q11.26.12,22.55,0c2.19,0,2.81,1,2.79,3-.07,5.64-.08,11.28,0,16.91,0,2.18-1,2.81-3,2.76C583.59,265.36,579.83,265.43,576.07,265.43Z" transform="translate(-6.97 -12.52)"/><path class="cls-3" d="M588.31,115.82c-.62-11.29-.19-22.58-.21-33.87,0-2.6,2.17-4,4-5.09,6.8-3.88,14.39.49,14.31,8.15,0,4,.44,8-.32,12Z" transform="translate(-6.97 -12.52)"/><path class="cls-4" d="M555.69,98.62c0,8.55-.09,17.1,0,25.64,0,2.87-.69,4-3.8,3.94-14.7-.14-29.41-.1-44.12,0-2.88,0-4.75-1.25-7-2.89-9-6.69-12.55-15.26-10.91-26.39.68-4.55.32-9.29.05-13.93-.21-3.45,1.12-4.19,4.34-4.14,10.81.2,21.62.1,32.43.06,1.86,0,4.47.79,4.41-2.47-.06-2.86-1.82-4.27-4.65-4.27H498.23c-8.17,0-8.17,0-8.17-8.24,0-2.89.1-5.79,0-8.67-.1-2.33.92-3.08,3.13-3.07q22.24.06,44.5,0a5.68,5.68,0,0,1,4.3,1.93c3.85,4,7.72,7.92,11.67,11.8a7.35,7.35,0,0,1,2.09,5.8C555.66,82,555.69,90.33,555.69,98.62Z" transform="translate(-6.97 -12.52)"/><path class="cls-6" d="M457.89,90.66c0,3.64-.11,7.28,0,10.91.1,2.32-.81,3.15-3.06,3.08-3.38-.1-6.77.07-10.15,0a6.74,6.74,0,0,1-6.71-7q0-7,0-13.92c0-4.63,2.85-7.35,7.52-7.38,3,0,6,.18,9,0,2.75-.19,3.45,1,3.34,3.49C457.76,83.38,457.89,87,457.89,90.66Z" transform="translate(-6.97 -12.52)"/><path class="cls-7" d="M186,201.11c0-2.89,0-5.77,0-8.65,0-4.62,2.84-7.34,7.5-7.35,2,0,4,0,6,0,4.3.08,7,2.65,7.06,7q.16,8.84,0,17.68c-.07,4.75-2.78,7.27-7.6,7.32-2.26,0-4.52.08-6.77,0a6.78,6.78,0,0,1-6.3-6.62c0-1.63,0-3.26,0-4.89S186,202.61,186,201.11Z" transform="translate(-6.97 -12.52)"/><path class="cls-8" d="M516.27,192.88a.82.82,0,0,1-.37.06c-2-.51-5.28,1.95-5.89-2.19-.41-2.8,2.52-6.74,5.46-7s5.93-.63,8.84.34C523.06,188.35,519.53,190.49,516.27,192.88Z" transform="translate(-6.97 -12.52)"/><path class="cls-9" d="M516.27,192.88l8-8.76a7.32,7.32,0,0,1,3.85,3.34c2,3,.59,5.58-3,5.59C522.22,193.06,519.25,193,516.27,192.88Z" transform="translate(-6.97 -12.52)"/><path class="cls-10" d="M382.63,309.08c1.5,0,3-.1,4.5,0,1.87.15,4.49-1.08,4.53,2.62s-1.26,6.1-4.3,6.28a117,117,0,0,1-12,0c-2.65-.12-4-1.84-4-4.5a4.12,4.12,0,0,1,4.13-4.42c2.36-.19,4.75,0,7.12,0Z" transform="translate(-6.97 -12.52)"/><path class="cls-11" d="M729.26,193.06c-2,0-4-.16-6,0-3.17.3-3.57-1.52-3.23-3.94s2.16-3.66,3.88-4.82c2.89-2,10.74-.62,13.26,1.85a5.46,5.46,0,0,1,1.52,5.51c-.57,2.21-2.7,1.21-4.18,1.34C732.78,193.18,731,193.06,729.26,193.06Z" transform="translate(-6.97 -12.52)"/><path class="cls-12" d="M714.09,315c1.62,0,3.25-.08,4.87,0,1.93.11,4.42-.91,4.57,2.68.12,3.24-1.06,5.74-4.15,6.13a61.44,61.44,0,0,1-12.72.1,4.13,4.13,0,0,1-3.76-4.79c.25-2.42,1.67-4.14,4.44-4.13h6.75Z" transform="translate(-6.97 -12.52)"/><path class="cls-2" d="M515.29,294c0-2.64,0-5.28,0-7.91,0-1.65.49-3.37,2-3.74,4.12-1,8.36-1.79,12.41.36a4.69,4.69,0,0,1,2.49,4.69c-.1,3.77,0,7.54,0,11.31s-2.07,5.8-5.72,6.06C515.29,305.58,515.29,305.58,515.29,294Z" transform="translate(-6.97 -12.52)"/><path class="cls-5" d="M522.06,100.14a37.5,37.5,0,0,1,4.5,0c1.81.22,4.52-1.21,4.67,2.49.13,3.46-1.33,6.19-4.29,6.38a87.9,87.9,0,0,1-12.36,0c-2.57-.2-3.9-2.23-3.69-4.8.19-2.34,1.45-4,4-4,2.38-.06,4.75,0,7.13,0Z" transform="translate(-6.97 -12.52)"/></svg>